<svg width="191" height="46" viewBox="0 0 191 46" fill="none" xmlns="http://www.w3.org/2000/svg">
<path d="M86.6566 12.7769V8.76979C86.6566 8.38958 86.6218 8.02418 86.5521 7.67359C86.4874 7.323 86.3705 7.00945 86.2013 6.73293C86.0372 6.45147 85.8133 6.22926 85.5297 6.06631C85.251 5.90336 84.8978 5.82189 84.4699 5.82189C84.1365 5.82189 83.833 5.87868 83.5594 5.99225C83.2907 6.10088 83.0593 6.26877 82.8653 6.49591C82.6712 6.72305 82.5195 7.00945 82.41 7.3551C82.3055 7.69581 82.2533 8.09824 82.2533 8.5624L81.3801 8.29576C81.3801 7.52051 81.5194 6.85637 81.798 6.30333C82.0816 5.74535 82.4772 5.31823 82.9847 5.02196C83.4972 4.72075 84.0992 4.57014 84.7908 4.57014C85.3132 4.57014 85.7585 4.65162 86.1267 4.81457C86.4949 4.97752 86.8009 5.19478 87.0447 5.46636C87.2885 5.73301 87.4801 6.03422 87.6194 6.36999C87.7587 6.70083 87.8557 7.03907 87.9104 7.38472C87.9701 7.72544 88 8.04887 88 8.35501V12.7769H86.6566ZM80.9099 12.7769V4.77753H82.104V6.9181H82.2533V12.7769H80.9099Z" fill="white"/>
<path d="M75.3858 12.9991C74.5848 12.9991 73.8932 12.8189 73.3111 12.4584C72.7339 12.0979 72.2886 11.5992 71.9751 10.9622C71.6617 10.3252 71.505 9.59444 71.505 8.76981C71.505 7.93038 71.6642 7.19463 71.9826 6.56259C72.301 5.93054 72.7513 5.43922 73.3335 5.08863C73.9156 4.73311 74.5997 4.55535 75.3858 4.55535C76.1919 4.55535 76.886 4.73558 77.4681 5.09604C78.0502 5.45157 78.4955 5.94782 78.804 6.58481C79.1175 7.21686 79.2742 7.94519 79.2742 8.76981C79.2742 9.60431 79.1175 10.3401 78.804 10.977C78.4906 11.6091 78.0428 12.1053 77.4606 12.4658C76.8785 12.8213 76.1869 12.9991 75.3858 12.9991ZM75.3858 11.7473C76.2217 11.7473 76.8437 11.4708 77.2517 10.9178C77.6597 10.3647 77.8637 9.64875 77.8637 8.76981C77.8637 7.86618 77.6572 7.14772 77.2442 6.61444C76.8312 6.07621 76.2118 5.80709 75.3858 5.80709C74.8236 5.80709 74.3609 5.93301 73.9977 6.18484C73.6345 6.43667 73.3633 6.78479 73.1842 7.2292C73.0051 7.67361 72.9155 8.18714 72.9155 8.76981C72.9155 9.6685 73.1245 10.3894 73.5424 10.9326C73.9604 11.4758 74.5748 11.7473 75.3858 11.7473Z" fill="white"/>
<path d="M63.1642 12.9991C62.4129 12.9991 61.7686 12.8139 61.2313 12.4436C60.6939 12.0683 60.2784 11.5621 59.9849 10.9252C59.6963 10.2882 59.552 9.56972 59.552 8.76978C59.552 7.96985 59.6963 7.25139 59.9849 6.6144C60.2784 5.97742 60.6939 5.47623 61.2313 5.11083C61.7686 4.74049 62.4104 4.55532 63.1568 4.55532C63.918 4.55532 64.5574 4.73802 65.0748 5.10342C65.5923 5.46882 65.9829 5.97001 66.2466 6.607C66.5153 7.24398 66.6496 7.96491 66.6496 8.76978C66.6496 9.56478 66.5153 10.2832 66.2466 10.9252C65.9829 11.5621 65.5923 12.0683 65.0748 12.4436C64.5574 12.8139 63.9205 12.9991 63.1642 12.9991ZM63.3284 11.7918C63.8708 11.7918 64.3161 11.6634 64.6644 11.4066C65.0126 11.1449 65.2689 10.7869 65.4331 10.3326C65.6022 9.87339 65.6868 9.35245 65.6868 8.76978C65.6868 8.17724 65.6022 7.65629 65.4331 7.20695C65.2689 6.75267 65.0151 6.39961 64.6718 6.14778C64.3285 5.89101 63.8931 5.76262 63.3657 5.76262C62.8184 5.76262 62.3657 5.89595 62.0074 6.16259C61.6542 6.42923 61.3905 6.7897 61.2163 7.24398C61.0472 7.69827 60.9626 8.20687 60.9626 8.76978C60.9626 9.33764 61.0496 9.85117 61.2238 10.3104C61.3979 10.7647 61.6591 11.1251 62.0074 11.3918C62.3607 11.6584 62.801 11.7918 63.3284 11.7918ZM65.6868 12.7769V6.88846H65.5376V2.11107H66.8735V12.7769H65.6868Z" fill="white"/>
<path d="M41.8638 12.7768L39.4009 4.7701L40.7219 4.7775L42.5205 10.6289L44.3341 4.7775H45.5058L47.3119 10.6289L49.118 4.7775H50.4316L47.9687 12.7768H46.8641L44.9162 6.69586L42.9683 12.7768H41.8638Z" fill="white"/>
<path d="M35.1126 12.9991C34.3215 12.9991 33.6299 12.8263 33.0379 12.4806C32.4507 12.13 31.993 11.6436 31.6646 11.0215C31.3362 10.3944 31.172 9.66357 31.172 8.82907C31.172 7.95506 31.3337 7.19957 31.6572 6.56259C31.9806 5.92067 32.4308 5.42688 33.008 5.08123C33.5901 4.73064 34.2718 4.55535 35.0529 4.55535C35.8639 4.55535 36.5531 4.74052 37.1203 5.11086C37.6924 5.4812 38.1203 6.00955 38.4039 6.69591C38.6925 7.38227 38.8169 8.19949 38.7771 9.14756H37.4337V8.67352C37.4188 7.69089 37.2173 6.95762 36.8292 6.47371C36.4411 5.98486 35.8639 5.74043 35.0977 5.74043C34.2768 5.74043 33.6523 6.00214 33.2244 6.52555C32.7965 7.04897 32.5826 7.79952 32.5826 8.77722C32.5826 9.72035 32.7965 10.4512 33.2244 10.9696C33.6523 11.4881 34.2618 11.7473 35.0529 11.7473C35.5853 11.7473 36.048 11.6264 36.4411 11.3844C36.8342 11.1425 37.1426 10.7943 37.3665 10.3401L38.6428 10.7771C38.3293 11.4832 37.8566 12.0313 37.2247 12.4214C36.5978 12.8065 35.8938 12.9991 35.1126 12.9991ZM32.1348 9.14756V8.08839H38.0905V9.14756H32.1348Z" fill="white"/>
<path d="M28.052 3.36285V2H29.3805V3.36285H28.052ZM28.052 12.7769V4.77755H29.3805V12.7769H28.052Z" fill="white"/>
<path d="M22.2689 12.7769L19.3433 4.77755H20.6867L22.9481 11.0955L25.202 4.77755H26.5528L23.6272 12.7769H22.2689Z" fill="white"/>
<path d="M15.0551 12.9991C14.264 12.9991 13.5724 12.8263 12.9803 12.4806C12.3932 12.13 11.9355 11.6436 11.6071 11.0215C11.2787 10.3944 11.1145 9.66357 11.1145 8.82907C11.1145 7.95506 11.2762 7.19957 11.5996 6.56259C11.923 5.92067 12.3733 5.42688 12.9505 5.08123C13.5326 4.73064 14.2143 4.55535 14.9954 4.55535C15.8064 4.55535 16.4955 4.74052 17.0627 5.11086C17.6349 5.4812 18.0628 6.00955 18.3464 6.69591C18.635 7.38227 18.7594 8.19949 18.7196 9.14756H17.3762V8.67352C17.3613 7.69089 17.1598 6.95762 16.7717 6.47371C16.3836 5.98486 15.8064 5.74043 15.0402 5.74043C14.2192 5.74043 13.5948 6.00214 13.1669 6.52555C12.739 7.04897 12.5251 7.79952 12.5251 8.77722C12.5251 9.72035 12.739 10.4512 13.1669 10.9696C13.5948 11.4881 14.2043 11.7473 14.9954 11.7473C15.5278 11.7473 15.9905 11.6264 16.3836 11.3844C16.7766 11.1425 17.0851 10.7943 17.309 10.3401L18.5852 10.7771C18.2718 11.4832 17.7991 12.0313 17.1672 12.4214C16.5403 12.8065 15.8363 12.9991 15.0551 12.9991ZM12.0773 9.14756V8.08839H18.033V9.14756H12.0773Z" fill="white"/>
<path d="M2 12.7769V2.11107H6.2466C6.35108 2.11107 6.47547 2.11601 6.61976 2.12589C6.76405 2.13082 6.90336 2.14564 7.0377 2.17033C7.61984 2.25921 8.10744 2.45672 8.5005 2.76287C8.89854 3.06902 9.19707 3.45664 9.3961 3.92574C9.59512 4.3899 9.69463 4.9059 9.69463 5.47376C9.69463 6.29838 9.47819 7.01437 9.04532 7.62173C8.61245 8.22415 7.97808 8.6019 7.14219 8.75497L6.63469 8.83644H3.32846V12.7769H2ZM8.39602 12.7769L6.27645 8.43648L7.58999 8.03651L9.91852 12.7769H8.39602ZM3.32846 7.58469H6.20182C6.29635 7.58469 6.40333 7.57976 6.52274 7.56988C6.64713 7.56001 6.76405 7.54272 6.87351 7.51803C7.21682 7.43903 7.49545 7.29583 7.7094 7.08844C7.92832 6.87611 8.08754 6.62922 8.18705 6.34776C8.28656 6.06136 8.33631 5.77003 8.33631 5.47376C8.33631 5.17749 8.28656 4.88862 8.18705 4.60716C8.08754 4.32077 7.92832 4.07141 7.7094 3.85908C7.49545 3.64675 7.21682 3.50355 6.87351 3.42948C6.76405 3.39986 6.64713 3.38257 6.52274 3.37764C6.40333 3.36776 6.29635 3.36282 6.20182 3.36282H3.32846V7.58469Z" fill="white"/>
<path d="M54.7911 13C54 13 53.3084 12.8272 52.7163 12.4815C52.1292 12.1309 51.6714 11.6446 51.343 11.0224C51.0146 10.3953 50.8505 9.66447 50.8505 8.82997C50.8505 7.95597 51.0122 7.20048 51.3356 6.56349C51.659 5.92157 52.1093 5.42779 52.6864 5.08214C53.2686 4.73155 53.9502 4.55625 54.7314 4.55625C55.5424 4.55625 56.2315 4.74142 56.7987 5.11176C57.3709 5.4821 57.7988 6.01045 58.0824 6.69682C58.3709 7.38318 58.4953 8.2004 58.4555 9.14847H57.1121V8.67443C57.0972 7.6918 56.8957 6.95852 56.5076 6.47461C56.1195 5.98576 55.5424 5.74134 54.7761 5.74134C53.9552 5.74134 53.3307 6.00305 52.9029 6.52646C52.475 7.04987 52.261 7.80043 52.261 8.77813C52.261 9.72126 52.475 10.4521 52.9029 10.9705C53.3307 11.489 53.9402 11.7483 54.7314 11.7483C55.2637 11.7483 55.7265 11.6273 56.1195 11.3853C56.5126 11.1434 56.8211 10.7952 57.045 10.341L58.3212 10.778C58.0077 11.4841 57.5351 12.0322 56.9032 12.4223C56.2762 12.8074 55.5722 13 54.7911 13ZM51.8132 9.14847V8.08929H57.7689V9.14847H51.8132Z" fill="white"/>
<path d="M103.519 42.7578V31.5708L101.08 33.0468V31.2558L103.519 29.7978H105.148V42.7578H103.519ZM108.213 42.7488L108.222 41.3088L113.973 36.1338C114.453 35.7018 114.774 35.2938 114.936 34.9098C115.104 34.5198 115.188 34.1208 115.188 33.7128C115.188 33.2148 115.074 32.7648 114.846 32.3628C114.618 31.9608 114.306 31.6428 113.91 31.4088C113.52 31.1748 113.076 31.0578 112.578 31.0578C112.062 31.0578 111.603 31.1808 111.201 31.4268C110.799 31.6668 110.481 31.9878 110.247 32.3898C110.019 32.7918 109.908 33.2298 109.914 33.7038H108.276C108.276 32.8878 108.465 32.1678 108.843 31.5438C109.221 30.9138 109.734 30.4218 110.382 30.0678C111.036 29.7078 111.777 29.5278 112.604 29.5278C113.409 29.5278 114.129 29.7138 114.765 30.0858C115.401 30.4518 115.902 30.9528 116.268 31.5888C116.64 32.2188 116.826 32.9328 116.826 33.7308C116.826 34.2948 116.754 34.7838 116.609 35.1978C116.471 35.6118 116.256 35.9958 115.962 36.3498C115.668 36.6978 115.299 37.0698 114.855 37.4658L110.076 41.7588L109.869 41.2188H116.826V42.7488H108.213ZM122.582 42.7578V29.7978H127.703C127.829 29.7978 127.979 29.8038 128.153 29.8158C128.327 29.8218 128.495 29.8398 128.657 29.8698C129.359 29.9778 129.947 30.2178 130.421 30.5898C130.901 30.9618 131.261 31.4328 131.501 32.0028C131.741 32.5668 131.861 33.1938 131.861 33.8838C131.861 34.8858 131.6 35.7558 131.078 36.4938C130.556 37.2258 129.791 37.6848 128.783 37.8708L128.171 37.9698H124.184V42.7578H122.582ZM130.295 42.7578L127.739 37.4838L129.323 36.9978L132.131 42.7578H130.295ZM124.184 36.4488H127.649C127.763 36.4488 127.892 36.4428 128.036 36.4308C128.186 36.4188 128.327 36.3978 128.459 36.3678C128.873 36.2718 129.209 36.0978 129.467 35.8458C129.731 35.5878 129.923 35.2878 130.043 34.9458C130.163 34.5978 130.223 34.2438 130.223 33.8838C130.223 33.5238 130.163 33.1728 130.043 32.8308C129.923 32.4828 129.731 32.1798 129.467 31.9218C129.209 31.6638 128.873 31.4898 128.459 31.3998C128.327 31.3638 128.186 31.3428 128.036 31.3368C127.892 31.3248 127.763 31.3188 127.649 31.3188H124.184V36.4488ZM138.326 43.0278C137.372 43.0278 136.538 42.8178 135.824 42.3978C135.116 41.9718 134.564 41.3808 134.168 40.6248C133.772 39.8628 133.574 38.9748 133.574 37.9608C133.574 36.8988 133.769 35.9808 134.159 35.2068C134.549 34.4268 135.092 33.8268 135.788 33.4068C136.49 32.9808 137.312 32.7678 138.254 32.7678C139.232 32.7678 140.063 32.9928 140.747 33.4428C141.437 33.8928 141.953 34.5348 142.295 35.3688C142.643 36.2028 142.793 37.1958 142.745 38.3478H141.125V37.7718C141.107 36.5778 140.864 35.6868 140.396 35.0988C139.928 34.5048 139.232 34.2078 138.308 34.2078C137.318 34.2078 136.565 34.5258 136.049 35.1618C135.533 35.7978 135.275 36.7098 135.275 37.8978C135.275 39.0438 135.533 39.9318 136.049 40.5618C136.565 41.1918 137.3 41.5068 138.254 41.5068C138.896 41.5068 139.454 41.3598 139.928 41.0658C140.402 40.7718 140.774 40.3488 141.044 39.7968L142.583 40.3278C142.205 41.1858 141.635 41.8518 140.873 42.3258C140.117 42.7938 139.268 43.0278 138.326 43.0278ZM134.735 38.3478V37.0608H141.917V38.3478H134.735ZM147.025 42.7578L143.497 33.0378H145.117L147.844 40.7148L150.562 33.0378H152.191L148.663 42.7578H147.025ZM153.999 31.3188V29.6628H155.601V31.3188H153.999ZM153.999 42.7578V33.0378H155.601V42.7578H153.999ZM162.513 43.0278C161.559 43.0278 160.725 42.8178 160.011 42.3978C159.303 41.9718 158.751 41.3808 158.355 40.6248C157.959 39.8628 157.761 38.9748 157.761 37.9608C157.761 36.8988 157.956 35.9808 158.346 35.2068C158.736 34.4268 159.279 33.8268 159.975 33.4068C160.677 32.9808 161.499 32.7678 162.441 32.7678C163.419 32.7678 164.25 32.9928 164.934 33.4428C165.624 33.8928 166.14 34.5348 166.482 35.3688C166.83 36.2028 166.98 37.1958 166.932 38.3478H165.312V37.7718C165.294 36.5778 165.051 35.6868 164.583 35.0988C164.115 34.5048 163.419 34.2078 162.495 34.2078C161.505 34.2078 160.752 34.5258 160.236 35.1618C159.72 35.7978 159.462 36.7098 159.462 37.8978C159.462 39.0438 159.72 39.9318 160.236 40.5618C160.752 41.1918 161.487 41.5068 162.441 41.5068C163.083 41.5068 163.641 41.3598 164.115 41.0658C164.589 40.7718 164.961 40.3488 165.231 39.7968L166.77 40.3278C166.392 41.1858 165.822 41.8518 165.06 42.3258C164.304 42.7938 163.455 43.0278 162.513 43.0278ZM158.922 38.3478V37.0608H166.104V38.3478H158.922ZM170.654 42.7578L167.684 33.0288L169.277 33.0378L171.446 40.1478L173.633 33.0378H175.046L177.224 40.1478L179.402 33.0378H180.986L178.016 42.7578H176.684L174.335 35.3688L171.986 42.7578H170.654ZM185.932 43.0188C184.774 43.0188 183.823 42.7668 183.079 42.2628C182.341 41.7528 181.888 41.0418 181.72 40.1298L183.358 39.8688C183.49 40.3968 183.793 40.8168 184.267 41.1288C184.741 41.4348 185.329 41.5878 186.031 41.5878C186.697 41.5878 187.219 41.4498 187.597 41.1738C187.975 40.8978 188.164 40.5228 188.164 40.0488C188.164 39.7728 188.101 39.5508 187.975 39.3828C187.849 39.2088 187.588 39.0468 187.192 38.8968C186.802 38.7468 186.211 38.5668 185.419 38.3568C184.561 38.1288 183.886 37.8918 183.394 37.6458C182.902 37.3998 182.551 37.1148 182.341 36.7908C182.131 36.4668 182.026 36.0738 182.026 35.6118C182.026 35.0418 182.182 34.5438 182.494 34.1178C182.806 33.6858 183.241 33.3528 183.799 33.1188C184.363 32.8848 185.017 32.7678 185.761 32.7678C186.499 32.7678 187.159 32.8848 187.741 33.1188C188.323 33.3528 188.791 33.6858 189.145 34.1178C189.505 34.5438 189.718 35.0418 189.784 35.6118L188.146 35.9088C188.068 35.3868 187.816 34.9758 187.39 34.6758C186.97 34.3758 186.427 34.2168 185.761 34.1988C185.131 34.1748 184.618 34.2858 184.222 34.5318C183.832 34.7778 183.637 35.1108 183.637 35.5308C183.637 35.7648 183.709 35.9658 183.853 36.1338C184.003 36.3018 184.276 36.4608 184.672 36.6108C185.074 36.7608 185.656 36.9318 186.418 37.1238C187.276 37.3398 187.951 37.5768 188.443 37.8348C188.941 38.0868 189.295 38.3868 189.505 38.7348C189.715 39.0768 189.82 39.4998 189.82 40.0038C189.82 40.9398 189.475 41.6778 188.785 42.2178C188.095 42.7518 187.144 43.0188 185.932 43.0188Z" fill="white"/>
<path d="M107.583 0L109.812 4.47926L114.796 5.19755L111.189 8.68416L112.041 13.6073L107.583 11.2829L103.126 13.6073L103.977 8.68416L100.371 5.19755L105.355 4.47926L107.583 0Z" fill="#FFB800"/>
<path d="M126.536 0L128.765 4.47926L133.749 5.19755L130.143 8.68416L130.994 13.6073L126.536 11.2829L122.079 13.6073L122.93 8.68416L119.324 5.19755L124.308 4.47926L126.536 0Z" fill="#FFB800"/>
<path d="M145.505 0L147.734 4.47926L152.717 5.19755L149.111 8.68416L149.963 13.6073L145.505 11.2829L141.048 13.6073L141.899 8.68416L138.293 5.19755L143.277 4.47926L145.505 0Z" fill="#FFB800"/>
<path d="M164.458 0L166.687 4.47926L171.671 5.19755L168.064 8.68416L168.916 13.6073L164.458 11.2829L160.001 13.6073L160.852 8.68416L157.246 5.19755L162.23 4.47926L164.458 0Z" fill="#FFB800"/>
<path d="M183.419 0L185.648 4.47926L190.631 5.19755L187.025 8.68416L187.877 13.6073L183.419 11.2829L178.962 13.6073L179.813 8.68416L176.207 5.19755L181.191 4.47926L183.419 0Z" fill="#FFB800"/>
<path d="M22.8828 20.8281H26.9308V45.6179H22.8828V20.8281Z" fill="white"/>
<path d="M41.0099 37.7627C41.0099 41.6034 37.8419 41.9525 36.7859 41.9525C34.3219 41.9525 33.9699 39.6831 33.9699 38.461V28.8594H29.9219V38.2865C29.9219 40.5559 30.6259 42.6508 32.0339 43.8729C33.2659 45.0949 34.8499 45.6186 36.7859 45.6186C38.1939 45.6186 39.9539 45.2695 41.0099 44.222V45.6186H45.0579V28.8594H41.0099V37.7627Z" fill="white"/>
<path d="M52.9775 22.75H48.9295V28.8601H45.9375V32.7008H48.9295V45.6194H52.9775V32.7008H55.9695V28.8601H52.9775V22.75Z" fill="white"/>
<path d="M68.6399 40.5535C67.7599 41.2518 66.5279 41.7756 65.2959 41.7756C62.4799 41.7756 60.5439 39.6806 60.5439 36.8874C60.5439 34.0942 62.4799 32.1739 65.2959 32.1739C66.5279 32.1739 67.7599 32.523 68.6399 33.3959L69.1679 33.9197L71.9839 31.301L71.2799 30.7773C69.6959 29.3807 67.5839 28.5078 65.2959 28.5078C60.3679 28.5078 56.6719 32.1739 56.6719 37.062C56.6719 41.9501 60.3679 45.6162 65.2959 45.6162C67.5839 45.6162 69.6959 44.7433 71.2799 43.3467L71.9839 42.823L69.1679 40.0298L68.6399 40.5535Z" fill="white"/>
<path d="M86.2419 30.2552C85.0099 29.0332 83.7779 28.5095 81.8419 28.5095C80.4339 28.5095 79.0259 28.8586 77.9699 29.9061V20.8281H73.9219V45.6179H77.9699V36.3654C77.9699 32.5247 80.6099 32.1755 81.6659 32.1755C84.1299 32.1755 83.9539 34.445 83.9539 35.667V45.4433H88.0019V35.8416C88.0019 33.5721 87.4739 31.4772 86.2419 30.2552Z" fill="white"/>
<path d="M65.1207 39.8599C66.6759 39.8599 67.9367 38.6093 67.9367 37.0666C67.9367 35.524 66.6759 34.2734 65.1207 34.2734C63.5655 34.2734 62.3047 35.524 62.3047 37.0666C62.3047 38.6093 63.5655 39.8599 65.1207 39.8599Z" fill="white"/>
<path d="M17.248 39.5063C15.84 40.9029 13.728 41.7757 11.44 41.7757C7.04 41.7757 3.872 38.2842 3.872 33.5707C3.872 28.8572 7.04 25.3656 11.616 25.3656C13.728 25.3656 15.84 26.2385 17.424 27.8097L17.952 28.3334L20.592 25.7148L20.064 25.1911C17.776 22.9216 14.784 21.6996 11.616 21.6996C4.928 21.525 0 26.7622 0 33.5707C0 40.3791 4.928 45.6164 11.44 45.6164C14.608 45.6164 17.776 44.3944 19.888 42.1249L20.416 41.6012L17.776 38.9825L17.248 39.5063Z" fill="white"/>
</svg>
