<svg width="155" height="46" viewBox="0 0 155 46" fill="none" xmlns="http://www.w3.org/2000/svg">
<path d="M7.58333 0L9.81202 4.47926L14.7955 5.19755L11.1894 8.68416L12.0407 13.6073L7.58333 11.2829L3.12596 13.6073L3.97724 8.68416L0.371155 5.19755L5.35465 4.47926L7.58333 0Z" fill="#FFB800"/>
<path d="M26.5365 0L28.7651 4.47926L33.7486 5.19755L30.1425 8.68416L30.9938 13.6073L26.5365 11.2829L22.0791 13.6073L22.9304 8.68416L19.3243 5.19755L24.3078 4.47926L26.5365 0Z" fill="#FFB800"/>
<path d="M45.5052 0L47.7339 4.47926L52.7174 5.19755L49.1113 8.68416L49.9626 13.6073L45.5052 11.2829L41.0478 13.6073L41.8991 8.68416L38.293 5.19755L43.2765 4.47926L45.5052 0Z" fill="#FFB800"/>
<path d="M64.4583 0L66.687 4.47926L71.6705 5.19755L68.0644 8.68416L68.9157 13.6073L64.4583 11.2829L60.001 13.6073L60.8522 8.68416L57.2462 5.19755L62.2296 4.47926L64.4583 0Z" fill="#FFB800"/>
<path d="M83.4193 0L85.648 4.47926L90.6314 5.19755L87.0254 8.68416L87.8766 13.6073L83.4193 11.2829L78.9619 13.6073L79.8132 8.68416L76.2071 5.19755L81.1906 4.47926L83.4193 0Z" fill="#FFB800"/>
<path d="M9.50667 30.8585C9.50667 30.8585 8.215 30.7304 8.215 31.8579V36.9058H16.6883V38.4177C16.6883 38.4177 16.7142 39.1608 15.9133 39.1608H8.215V45.7206H17.4633C17.4633 45.7206 23.0692 44.875 23.1208 39.1608V30.8585H9.50667ZM22.8625 22.8125H6.17417C0.129167 24.2218 0 29.1417 0 29.1417V45.7462H6.40667V30.6279C6.40667 29.3467 7.69833 29.1161 7.69833 29.1161H22.8367L22.8625 22.8125ZM44.8983 40.9801C44.4592 41.262 44.1233 41.4926 43.8908 41.6207C43.0642 42.1332 42.2892 42.5175 41.5658 42.825C40.5067 43.2607 39.5767 43.4656 38.7242 43.4656C35.8308 43.4656 33.4283 42.5944 31.5167 40.8263C29.5792 39.0583 28.6233 36.829 28.6233 34.164C28.6233 31.576 29.4758 29.3467 31.2325 27.4249C32.9633 25.5287 35.0817 24.5806 37.5617 24.5806C38.595 24.5806 39.7058 24.7599 40.8425 25.1187C42.3408 25.5799 43.5292 26.2974 44.5108 27.1942L42.8575 29.0136C42.16 28.3217 41.23 27.8349 40.1708 27.5274C39.37 27.2967 38.4917 27.1686 37.51 27.1686C35.7792 27.1686 34.3067 27.8605 33.1183 29.2442C31.9558 30.6535 31.3617 32.2935 31.3617 34.2409C31.3617 36.1627 32.0333 37.7514 33.3767 39.007C34.72 40.2626 36.425 40.9032 38.4917 40.9032C39.3442 40.9032 40.2225 40.6214 41.1267 40.1089C41.8758 39.5451 42.2633 39.2633 42.2633 39.2633V35.2659H36.6575L37.4583 32.7803H44.8983V40.9801ZM61.7675 36.1115C61.7675 38.0333 61.07 39.6989 59.7008 41.1082C58.3317 42.5176 56.6267 43.235 54.5858 43.235C52.7 43.235 51.0725 42.5432 49.6517 41.1595C48.2308 39.7758 47.5333 38.1102 47.5333 36.1371C47.5333 34.1897 48.205 32.5241 49.5483 31.0891C50.8917 29.6542 52.545 28.9623 54.4567 28.9623C56.6008 28.9623 58.3317 29.6542 59.7008 31.0123C61.07 32.3447 61.7675 34.0615 61.7675 36.1115ZM59.1583 36.1627C59.1583 34.8559 58.7192 33.7541 57.8408 32.8572C56.9625 31.9347 55.8775 31.4991 54.56 31.4991C53.3458 31.4991 52.3125 31.9604 51.4342 32.9085C50.5817 33.8309 50.1425 34.9071 50.1425 36.1115C50.1425 37.3671 50.5817 38.4433 51.4342 39.3401C52.2867 40.237 53.3717 40.6982 54.6633 40.6982C55.8775 40.6982 56.9108 40.2626 57.7892 39.3658C58.7192 38.4433 59.1583 37.3671 59.1583 36.1627ZM78.43 36.1115C78.43 38.0333 77.7325 39.6989 76.3633 41.1082C74.9942 42.5176 73.2892 43.235 71.2483 43.235C69.3625 43.235 67.735 42.5432 66.3142 41.1595C64.8933 39.7758 64.1958 38.1102 64.1958 36.1371C64.1958 34.1897 64.8675 32.5241 66.2108 31.0891C67.5542 29.6542 69.2075 28.9623 71.1192 28.9623C73.2633 28.9623 74.9942 29.6542 76.3633 31.0123C77.7325 32.3447 78.43 34.0615 78.43 36.1115ZM75.795 36.1627C75.795 34.8559 75.3558 33.7541 74.4775 32.8572C73.5992 31.9347 72.5142 31.4991 71.1967 31.4991C69.9825 31.4991 68.9492 31.9604 68.0708 32.9085C67.2183 33.8309 66.7792 34.9071 66.7792 36.1115C66.7792 37.3671 67.2183 38.4433 68.0708 39.3401C68.9233 40.237 70.0083 40.6982 71.3 40.6982C72.5142 40.6982 73.5475 40.2626 74.4258 39.3658C75.3558 38.4433 75.795 37.3671 75.795 36.1627ZM93.8267 42.8507L91.4242 43.2094V40.9032L90.9075 41.4926C90.4425 41.9282 89.9258 42.2613 89.3833 42.5432C88.5567 42.9275 87.6783 43.1069 86.7742 43.1069C84.8883 43.1069 83.2867 42.4151 81.995 41.057C80.7033 39.6989 80.0317 38.0333 80.0317 36.1371C80.0317 34.164 80.6775 32.4728 81.9692 31.0891C83.2608 29.6798 84.8108 28.9879 86.6967 28.9879C87.7817 28.9879 88.7117 29.1673 89.4867 29.5004C90.055 29.7567 90.52 30.0898 90.9333 30.4998C91.0625 30.6791 91.1917 30.8585 91.3467 31.0379V24.9649L93.9042 24.6062L93.8267 42.8507ZM91.5792 36.2909C91.5792 34.9328 91.1142 33.7797 90.1842 32.8572C89.2542 31.9091 88.195 31.4479 86.9808 31.4479C85.6375 31.4479 84.5783 31.8835 83.7517 32.7803C82.9767 33.6259 82.5892 34.6765 82.5892 35.9065C82.5892 37.2902 83.0025 38.4433 83.8033 39.3401C84.6042 40.237 85.6117 40.6726 86.8775 40.6726C88.0917 40.6726 89.1767 40.2626 90.1325 39.417C91.0883 38.5714 91.5792 37.5208 91.5792 36.2909ZM107.363 27.4761H100.182V32.3191H105.762V34.8047H100.182V42.825L97.3917 43.235V24.9649H106.821L107.363 27.4761ZM113.124 26.0668L111.393 28.2192L109.74 26.0668L111.471 23.94L113.124 26.0668ZM112.607 42.8507L110.05 43.2094V29.6798L112.607 29.2954V42.8507ZM124.181 29.1417L122.967 31.9091C122.812 31.8835 122.657 31.8835 122.476 31.8835C122.217 31.8835 121.985 31.9091 121.727 31.9347C121.468 31.9604 121.21 32.0629 120.926 32.2166C120.383 32.4472 119.918 32.9597 119.531 33.7028C119.092 34.574 118.859 35.5221 118.859 36.4959V42.825L116.302 43.235V29.6798L118.678 29.2442V32.0629C118.988 31.576 119.298 31.0891 119.608 30.5766C120.047 30.0642 120.564 29.7054 121.132 29.4748C121.442 29.3467 121.985 29.2698 122.837 29.1929C123.664 29.1417 124.129 29.1161 124.181 29.1417ZM143.298 42.8507L140.74 43.2094V33.9334C140.74 33.0878 140.559 32.4472 140.172 32.0629C139.784 31.6785 139.216 31.4735 138.467 31.4735C137.562 31.4735 136.891 31.8322 136.426 32.5753C136.116 33.0878 135.935 33.6259 135.935 34.164V42.7994L133.377 43.2607V33.959C133.377 33.1391 133.197 32.5241 132.809 32.0885C132.422 31.6529 131.931 31.4479 131.285 31.4479H131.027C130.122 31.4479 129.477 31.8066 129.063 32.5753C128.753 33.1391 128.598 33.8565 128.598 34.7278V42.7738L125.937 43.235V29.6285L128.34 29.2186V30.961C128.598 30.551 128.883 30.2179 129.115 29.9873C129.812 29.3467 130.613 29.0392 131.518 29.0392C132.525 29.0392 133.274 29.1929 133.791 29.5261C134.23 29.8079 134.643 30.346 135.082 31.1148C135.961 29.7311 137.201 29.0392 138.854 29.0392C140.43 29.0392 141.592 29.5261 142.367 30.5254C142.987 31.3454 143.298 32.5497 143.298 34.1128V42.8507ZM155 38.7508C155 40.0064 154.561 41.0313 153.682 41.8257C152.804 42.6457 151.693 43.03 150.35 43.03C149.342 43.03 148.438 42.7994 147.612 42.3382C146.785 41.8769 146.165 41.3388 145.777 40.7239L147.586 39.1351C147.715 39.3401 147.844 39.4939 147.947 39.5964C148.619 40.2882 149.42 40.6214 150.35 40.6214C150.996 40.6214 151.512 40.442 151.874 40.1089C152.262 39.7758 152.442 39.3145 152.442 38.6995C152.442 38.0077 152.003 37.5464 151.125 37.2902C149.394 36.7777 148.438 36.4702 148.309 36.419C147.508 36.009 146.94 35.5734 146.578 35.0865C146.165 34.5228 145.958 33.7797 145.958 32.8316C145.958 31.6529 146.397 30.7048 147.25 29.9104C148.102 29.1417 149.136 28.7573 150.324 28.7573C151.228 28.7573 152.055 28.9623 152.83 29.3723C153.605 29.7823 154.147 30.2179 154.483 30.7048L152.959 32.3447C152.727 32.1141 152.468 31.9091 152.21 31.7297C151.59 31.2941 150.996 31.0891 150.453 31.0891C149.911 31.0891 149.472 31.2173 149.136 31.4479C148.722 31.7297 148.516 32.1654 148.516 32.7291C148.516 33.2672 148.697 33.6772 149.11 33.9334C149.446 34.1384 150.169 34.369 151.332 34.6253C152.468 34.9071 153.372 35.3684 153.992 36.0346C154.716 36.7521 155 37.6233 155 38.7508Z" fill="white"/>
</svg>
