<svg width="193" height="49" viewBox="0 0 193 49" fill="none" xmlns="http://www.w3.org/2000/svg">
<path d="M84.6566 11.7769V7.76979C84.6566 7.38958 84.6218 7.02418 84.5521 6.67359C84.4874 6.323 84.3705 6.00945 84.2013 5.73293C84.0372 5.45147 83.8133 5.22926 83.5297 5.06631C83.251 4.90336 82.8978 4.82189 82.4699 4.82189C82.1365 4.82189 81.833 4.87868 81.5594 4.99225C81.2907 5.10088 81.0593 5.26877 80.8653 5.49591C80.6712 5.72305 80.5195 6.00945 80.41 6.3551C80.3055 6.69581 80.2533 7.09824 80.2533 7.5624L79.3801 7.29576C79.3801 6.52051 79.5194 5.85637 79.798 5.30333C80.0816 4.74535 80.4772 4.31823 80.9847 4.02196C81.4972 3.72075 82.0992 3.57014 82.7908 3.57014C83.3132 3.57014 83.7585 3.65162 84.1267 3.81457C84.4949 3.97752 84.8009 4.19478 85.0447 4.46636C85.2885 4.73301 85.4801 5.03422 85.6194 5.36999C85.7587 5.70083 85.8557 6.03907 85.9104 6.38472C85.9701 6.72544 86 7.04887 86 7.35501V11.7769H84.6566ZM78.9099 11.7769V3.77753H80.104V5.9181H80.2533V11.7769H78.9099Z" fill="white"/>
<path d="M73.3858 11.9991C72.5848 11.9991 71.8932 11.8189 71.3111 11.4584C70.7339 11.0979 70.2886 10.5992 69.9751 9.96222C69.6617 9.32524 69.505 8.59444 69.505 7.76981C69.505 6.93038 69.6642 6.19463 69.9826 5.56259C70.301 4.93054 70.7513 4.43922 71.3335 4.08863C71.9156 3.73311 72.5997 3.55535 73.3858 3.55535C74.1919 3.55535 74.886 3.73558 75.4681 4.09604C76.0502 4.45157 76.4955 4.94782 76.804 5.58481C77.1175 6.21686 77.2742 6.94519 77.2742 7.76981C77.2742 8.60431 77.1175 9.34005 76.804 9.97704C76.4906 10.6091 76.0428 11.1053 75.4606 11.4658C74.8785 11.8213 74.1869 11.9991 73.3858 11.9991ZM73.3858 10.7473C74.2217 10.7473 74.8437 10.4708 75.2517 9.91778C75.6597 9.36474 75.8637 8.64875 75.8637 7.76981C75.8637 6.86618 75.6572 6.14772 75.2442 5.61444C74.8312 5.07621 74.2118 4.80709 73.3858 4.80709C72.8236 4.80709 72.3609 4.93301 71.9977 5.18484C71.6345 5.43667 71.3633 5.78479 71.1842 6.2292C71.0051 6.67361 70.9155 7.18714 70.9155 7.76981C70.9155 8.6685 71.1245 9.38943 71.5424 9.9326C71.9604 10.4758 72.5748 10.7473 73.3858 10.7473Z" fill="white"/>
<path d="M61.1642 11.9991C60.4129 11.9991 59.7686 11.8139 59.2313 11.4436C58.6939 11.0683 58.2784 10.5621 57.9849 9.92516C57.6963 9.28818 57.552 8.56972 57.552 7.76978C57.552 6.96985 57.6963 6.25139 57.9849 5.6144C58.2784 4.97742 58.6939 4.47623 59.2313 4.11083C59.7686 3.74049 60.4104 3.55532 61.1568 3.55532C61.918 3.55532 62.5574 3.73802 63.0748 4.10342C63.5923 4.46882 63.9829 4.97001 64.2466 5.607C64.5153 6.24398 64.6496 6.96491 64.6496 7.76978C64.6496 8.56478 64.5153 9.28324 64.2466 9.92516C63.9829 10.5621 63.5923 11.0683 63.0748 11.4436C62.5574 11.8139 61.9205 11.9991 61.1642 11.9991ZM61.3284 10.7918C61.8708 10.7918 62.3161 10.6634 62.6644 10.4066C63.0126 10.1449 63.2689 9.7869 63.4331 9.33262C63.6022 8.87339 63.6868 8.35245 63.6868 7.76978C63.6868 7.17724 63.6022 6.65629 63.4331 6.20695C63.2689 5.75267 63.0151 5.39961 62.6718 5.14778C62.3285 4.89101 61.8931 4.76262 61.3657 4.76262C60.8184 4.76262 60.3657 4.89595 60.0074 5.16259C59.6542 5.42923 59.3905 5.7897 59.2163 6.24398C59.0472 6.69827 58.9626 7.20687 58.9626 7.76978C58.9626 8.33764 59.0496 8.85117 59.2238 9.3104C59.3979 9.76468 59.6591 10.1251 60.0074 10.3918C60.3607 10.6584 60.801 10.7918 61.3284 10.7918ZM63.6868 11.7769V5.88846H63.5376V1.11107H64.8735V11.7769H63.6868Z" fill="white"/>
<path d="M39.8638 11.7768L37.4009 3.7701L38.7219 3.7775L40.5205 9.62887L42.3341 3.7775H43.5058L45.3119 9.62887L47.118 3.7775H48.4316L45.9687 11.7768H44.8641L42.9162 5.69586L40.9683 11.7768H39.8638Z" fill="white"/>
<path d="M33.1126 11.9991C32.3215 11.9991 31.6299 11.8263 31.0379 11.4806C30.4507 11.13 29.993 10.6436 29.6646 10.0215C29.3362 9.39437 29.172 8.66357 29.172 7.82907C29.172 6.95506 29.3337 6.19957 29.6572 5.56259C29.9806 4.92067 30.4308 4.42688 31.008 4.08123C31.5901 3.73064 32.2718 3.55535 33.0529 3.55535C33.8639 3.55535 34.5531 3.74052 35.1203 4.11086C35.6924 4.4812 36.1203 5.00955 36.4039 5.69591C36.6925 6.38227 36.8169 7.19949 36.7771 8.14756H35.4337V7.67352C35.4188 6.69089 35.2173 5.95762 34.8292 5.47371C34.4411 4.98486 33.8639 4.74043 33.0977 4.74043C32.2768 4.74043 31.6523 5.00214 31.2244 5.52555C30.7965 6.04897 30.5826 6.79952 30.5826 7.77722C30.5826 8.72035 30.7965 9.45115 31.2244 9.96963C31.6523 10.4881 32.2618 10.7473 33.0529 10.7473C33.5853 10.7473 34.048 10.6264 34.4411 10.3844C34.8342 10.1425 35.1426 9.79434 35.3665 9.34005L36.6428 9.77705C36.3293 10.4832 35.8566 11.0313 35.2247 11.4214C34.5978 11.8065 33.8938 11.9991 33.1126 11.9991ZM30.1348 8.14756V7.08839H36.0905V8.14756H30.1348Z" fill="white"/>
<path d="M26.052 2.36285V1H27.3805V2.36285H26.052ZM26.052 11.7769V3.77755H27.3805V11.7769H26.052Z" fill="white"/>
<path d="M20.2689 11.7769L17.3433 3.77755H18.6867L20.9481 10.0955L23.202 3.77755H24.5528L21.6272 11.7769H20.2689Z" fill="white"/>
<path d="M13.0551 11.9991C12.264 11.9991 11.5724 11.8263 10.9803 11.4806C10.3932 11.13 9.93547 10.6436 9.60709 10.0215C9.27871 9.39437 9.11452 8.66357 9.11452 7.82907C9.11452 6.95506 9.27622 6.19957 9.59963 5.56259C9.92304 4.92067 10.3733 4.42688 10.9505 4.08123C11.5326 3.73064 12.2143 3.55535 12.9954 3.55535C13.8064 3.55535 14.4955 3.74052 15.0627 4.11086C15.6349 4.4812 16.0628 5.00955 16.3464 5.69591C16.635 6.38227 16.7594 7.19949 16.7196 8.14756H15.3762V7.67352C15.3613 6.69089 15.1598 5.95762 14.7717 5.47371C14.3836 4.98486 13.8064 4.74043 13.0402 4.74043C12.2192 4.74043 11.5948 5.00214 11.1669 5.52555C10.739 6.04897 10.5251 6.79952 10.5251 7.77722C10.5251 8.72035 10.739 9.45115 11.1669 9.96963C11.5948 10.4881 12.2043 10.7473 12.9954 10.7473C13.5278 10.7473 13.9905 10.6264 14.3836 10.3844C14.7766 10.1425 15.0851 9.79434 15.309 9.34005L16.5852 9.77705C16.2718 10.4832 15.7991 11.0313 15.1672 11.4214C14.5403 11.8065 13.8363 11.9991 13.0551 11.9991ZM10.0773 8.14756V7.08839H16.033V8.14756H10.0773Z" fill="white"/>
<path d="M0 11.7769V1.11107H4.2466C4.35108 1.11107 4.47547 1.11601 4.61976 1.12589C4.76405 1.13082 4.90336 1.14564 5.0377 1.17033C5.61984 1.25921 6.10744 1.45672 6.5005 1.76287C6.89854 2.06902 7.19707 2.45664 7.3961 2.92574C7.59512 3.3899 7.69463 3.9059 7.69463 4.47376C7.69463 5.29838 7.47819 6.01437 7.04532 6.62173C6.61245 7.22415 5.97808 7.6019 5.14219 7.75497L4.63469 7.83644H1.32846V11.7769H0ZM6.39602 11.7769L4.27645 7.43648L5.58999 7.03651L7.91852 11.7769H6.39602ZM1.32846 6.58469H4.20182C4.29635 6.58469 4.40333 6.57976 4.52274 6.56988C4.64713 6.56001 4.76405 6.54272 4.87351 6.51803C5.21682 6.43903 5.49545 6.29583 5.7094 6.08844C5.92832 5.87611 6.08754 5.62922 6.18705 5.34776C6.28656 5.06136 6.33631 4.77003 6.33631 4.47376C6.33631 4.17749 6.28656 3.88862 6.18705 3.60716C6.08754 3.32077 5.92832 3.07141 5.7094 2.85908C5.49545 2.64675 5.21682 2.50355 4.87351 2.42948C4.76405 2.39986 4.64713 2.38257 4.52274 2.37764C4.40333 2.36776 4.29635 2.36282 4.20182 2.36282H1.32846V6.58469Z" fill="white"/>
<path d="M52.7911 12C52 12 51.3084 11.8272 50.7163 11.4815C50.1292 11.1309 49.6714 10.6446 49.343 10.0224C49.0146 9.39528 48.8505 8.66447 48.8505 7.82997C48.8505 6.95597 49.0122 6.20048 49.3356 5.56349C49.659 4.92157 50.1093 4.42779 50.6864 4.08214C51.2686 3.73155 51.9502 3.55625 52.7314 3.55625C53.5424 3.55625 54.2315 3.74142 54.7987 4.11176C55.3709 4.4821 55.7988 5.01045 56.0824 5.69682C56.3709 6.38318 56.4953 7.2004 56.4555 8.14847H55.1121V7.67443C55.0972 6.6918 54.8957 5.95852 54.5076 5.47461C54.1195 4.98576 53.5424 4.74134 52.7761 4.74134C51.9552 4.74134 51.3307 5.00305 50.9029 5.52646C50.475 6.04987 50.261 6.80043 50.261 7.77813C50.261 8.72126 50.475 9.45206 50.9029 9.97054C51.3307 10.489 51.9402 10.7483 52.7314 10.7483C53.2637 10.7483 53.7265 10.6273 54.1195 10.3853C54.5126 10.1434 54.8211 9.79524 55.045 9.34096L56.3212 9.77796C56.0077 10.4841 55.5351 11.0322 54.9032 11.4223C54.2762 11.8074 53.5722 12 52.7911 12ZM49.8132 8.14847V7.08929H55.7689V8.14847H49.8132Z" fill="white"/>
<path d="M103.815 43.0098C103.173 43.0098 102.576 42.8928 102.024 42.6588C101.472 42.4188 100.995 42.0828 100.593 41.6508C100.197 41.2128 99.906 40.6938 99.72 40.0938L101.259 39.6528C101.457 40.2528 101.787 40.7088 102.249 41.0208C102.711 41.3328 103.23 41.4858 103.806 41.4798C104.334 41.4678 104.79 41.3478 105.174 41.1198C105.564 40.8858 105.864 40.5678 106.074 40.1658C106.29 39.7638 106.398 39.2988 106.398 38.7708C106.398 37.9668 106.158 37.3158 105.678 36.8178C105.198 36.3138 104.568 36.0618 103.788 36.0618C103.572 36.0618 103.344 36.0918 103.104 36.1518C102.87 36.2118 102.651 36.2958 102.447 36.4038L101.673 35.1348L106.479 30.7878L106.686 31.3278H100.233V29.7978H107.874V31.3368L103.779 35.2608L103.761 34.6938C104.619 34.6338 105.369 34.7748 106.011 35.1168C106.653 35.4588 107.151 35.9478 107.505 36.5838C107.865 37.2198 108.045 37.9488 108.045 38.7708C108.045 39.5988 107.859 40.3308 107.487 40.9668C107.115 41.6028 106.611 42.1038 105.975 42.4698C105.339 42.8298 104.619 43.0098 103.815 43.0098ZM113.94 43.0098C113.298 43.0098 112.701 42.8928 112.149 42.6588C111.597 42.4188 111.12 42.0828 110.718 41.6508C110.322 41.2128 110.031 40.6938 109.845 40.0938L111.384 39.6528C111.582 40.2528 111.912 40.7088 112.374 41.0208C112.836 41.3328 113.355 41.4858 113.931 41.4798C114.459 41.4678 114.915 41.3478 115.299 41.1198C115.689 40.8858 115.989 40.5678 116.199 40.1658C116.415 39.7638 116.523 39.2988 116.523 38.7708C116.523 37.9668 116.283 37.3158 115.803 36.8178C115.323 36.3138 114.693 36.0618 113.913 36.0618C113.697 36.0618 113.469 36.0918 113.229 36.1518C112.995 36.2118 112.776 36.2958 112.572 36.4038L111.798 35.1348L116.604 30.7878L116.811 31.3278H110.358V29.7978H117.999V31.3368L113.904 35.2608L113.886 34.6938C114.744 34.6338 115.494 34.7748 116.136 35.1168C116.778 35.4588 117.276 35.9478 117.63 36.5838C117.99 37.2198 118.17 37.9488 118.17 38.7708C118.17 39.5988 117.984 40.3308 117.612 40.9668C117.24 41.6028 116.736 42.1038 116.1 42.4698C115.464 42.8298 114.744 43.0098 113.94 43.0098ZM124.114 42.7578V29.7978H129.235C129.361 29.7978 129.511 29.8038 129.685 29.8158C129.859 29.8218 130.027 29.8398 130.189 29.8698C130.891 29.9778 131.479 30.2178 131.953 30.5898C132.433 30.9618 132.793 31.4328 133.033 32.0028C133.273 32.5668 133.393 33.1938 133.393 33.8838C133.393 34.8858 133.132 35.7558 132.61 36.4938C132.088 37.2258 131.323 37.6848 130.315 37.8708L129.703 37.9698H125.716V42.7578H124.114ZM131.827 42.7578L129.271 37.4838L130.855 36.9978L133.663 42.7578H131.827ZM125.716 36.4488H129.181C129.295 36.4488 129.424 36.4428 129.568 36.4308C129.718 36.4188 129.859 36.3978 129.991 36.3678C130.405 36.2718 130.741 36.0978 130.999 35.8458C131.263 35.5878 131.455 35.2878 131.575 34.9458C131.695 34.5978 131.755 34.2438 131.755 33.8838C131.755 33.5238 131.695 33.1728 131.575 32.8308C131.455 32.4828 131.263 32.1798 130.999 31.9218C130.741 31.6638 130.405 31.4898 129.991 31.3998C129.859 31.3638 129.718 31.3428 129.568 31.3368C129.424 31.3248 129.295 31.3188 129.181 31.3188H125.716V36.4488ZM139.857 43.0278C138.903 43.0278 138.069 42.8178 137.355 42.3978C136.647 41.9718 136.095 41.3808 135.699 40.6248C135.303 39.8628 135.105 38.9748 135.105 37.9608C135.105 36.8988 135.3 35.9808 135.69 35.2068C136.08 34.4268 136.623 33.8268 137.319 33.4068C138.021 32.9808 138.843 32.7678 139.785 32.7678C140.763 32.7678 141.594 32.9928 142.278 33.4428C142.968 33.8928 143.484 34.5348 143.826 35.3688C144.174 36.2028 144.324 37.1958 144.276 38.3478H142.656V37.7718C142.638 36.5778 142.395 35.6868 141.927 35.0988C141.459 34.5048 140.763 34.2078 139.839 34.2078C138.849 34.2078 138.096 34.5258 137.58 35.1618C137.064 35.7978 136.806 36.7098 136.806 37.8978C136.806 39.0438 137.064 39.9318 137.58 40.5618C138.096 41.1918 138.831 41.5068 139.785 41.5068C140.427 41.5068 140.985 41.3598 141.459 41.0658C141.933 40.7718 142.305 40.3488 142.575 39.7968L144.114 40.3278C143.736 41.1858 143.166 41.8518 142.404 42.3258C141.648 42.7938 140.799 43.0278 139.857 43.0278ZM136.266 38.3478V37.0608H143.448V38.3478H136.266ZM148.556 42.7578L145.028 33.0378H146.648L149.375 40.7148L152.093 33.0378H153.722L150.194 42.7578H148.556ZM155.53 31.3188V29.6628H157.132V31.3188H155.53ZM155.53 42.7578V33.0378H157.132V42.7578H155.53ZM164.044 43.0278C163.09 43.0278 162.256 42.8178 161.542 42.3978C160.834 41.9718 160.282 41.3808 159.886 40.6248C159.49 39.8628 159.292 38.9748 159.292 37.9608C159.292 36.8988 159.487 35.9808 159.877 35.2068C160.267 34.4268 160.81 33.8268 161.506 33.4068C162.208 32.9808 163.03 32.7678 163.972 32.7678C164.95 32.7678 165.781 32.9928 166.465 33.4428C167.155 33.8928 167.671 34.5348 168.013 35.3688C168.361 36.2028 168.511 37.1958 168.463 38.3478H166.843V37.7718C166.825 36.5778 166.582 35.6868 166.114 35.0988C165.646 34.5048 164.95 34.2078 164.026 34.2078C163.036 34.2078 162.283 34.5258 161.767 35.1618C161.251 35.7978 160.993 36.7098 160.993 37.8978C160.993 39.0438 161.251 39.9318 161.767 40.5618C162.283 41.1918 163.018 41.5068 163.972 41.5068C164.614 41.5068 165.172 41.3598 165.646 41.0658C166.12 40.7718 166.492 40.3488 166.762 39.7968L168.301 40.3278C167.923 41.1858 167.353 41.8518 166.591 42.3258C165.835 42.7938 164.986 43.0278 164.044 43.0278ZM160.453 38.3478V37.0608H167.635V38.3478H160.453ZM172.185 42.7578L169.215 33.0288L170.808 33.0378L172.977 40.1478L175.164 33.0378H176.577L178.755 40.1478L180.933 33.0378H182.517L179.547 42.7578H178.215L175.866 35.3688L173.517 42.7578H172.185ZM187.463 43.0188C186.305 43.0188 185.354 42.7668 184.61 42.2628C183.872 41.7528 183.419 41.0418 183.251 40.1298L184.889 39.8688C185.021 40.3968 185.324 40.8168 185.798 41.1288C186.272 41.4348 186.86 41.5878 187.562 41.5878C188.228 41.5878 188.75 41.4498 189.128 41.1738C189.506 40.8978 189.695 40.5228 189.695 40.0488C189.695 39.7728 189.632 39.5508 189.506 39.3828C189.38 39.2088 189.119 39.0468 188.723 38.8968C188.333 38.7468 187.742 38.5668 186.95 38.3568C186.092 38.1288 185.417 37.8918 184.925 37.6458C184.433 37.3998 184.082 37.1148 183.872 36.7908C183.662 36.4668 183.557 36.0738 183.557 35.6118C183.557 35.0418 183.713 34.5438 184.025 34.1178C184.337 33.6858 184.772 33.3528 185.33 33.1188C185.894 32.8848 186.548 32.7678 187.292 32.7678C188.03 32.7678 188.69 32.8848 189.272 33.1188C189.854 33.3528 190.322 33.6858 190.676 34.1178C191.036 34.5438 191.249 35.0418 191.315 35.6118L189.677 35.9088C189.599 35.3868 189.347 34.9758 188.921 34.6758C188.501 34.3758 187.958 34.2168 187.292 34.1988C186.662 34.1748 186.149 34.2858 185.753 34.5318C185.363 34.7778 185.168 35.1108 185.168 35.5308C185.168 35.7648 185.24 35.9658 185.384 36.1338C185.534 36.3018 185.807 36.4608 186.203 36.6108C186.605 36.7608 187.187 36.9318 187.949 37.1238C188.807 37.3398 189.482 37.5768 189.974 37.8348C190.472 38.0868 190.826 38.3868 191.036 38.7348C191.246 39.0768 191.351 39.4998 191.351 40.0038C191.351 40.9398 191.006 41.6778 190.316 42.2178C189.626 42.7518 188.675 43.0188 187.463 43.0188Z" fill="white"/>
<path d="M106.583 0L108.812 4.47926L113.796 5.19755L110.189 8.68416L111.041 13.6073L106.583 11.2829L102.126 13.6073L102.977 8.68416L99.3712 5.19755L104.355 4.47926L106.583 0Z" fill="#FFB800"/>
<path d="M125.536 0L127.765 4.47926L132.749 5.19755L129.143 8.68416L129.994 13.6073L125.536 11.2829L121.079 13.6073L121.93 8.68416L118.324 5.19755L123.308 4.47926L125.536 0Z" fill="#FFB800"/>
<path d="M144.505 0L146.734 4.47926L151.717 5.19755L148.111 8.68416L148.963 13.6073L144.505 11.2829L140.048 13.6073L140.899 8.68416L137.293 5.19755L142.277 4.47926L144.505 0Z" fill="#FFB800"/>
<path d="M163.458 0L165.687 4.47926L170.671 5.19755L167.064 8.68416L167.916 13.6073L163.458 11.2829L159.001 13.6073L159.852 8.68416L156.246 5.19755L161.23 4.47926L163.458 0Z" fill="#FFB800"/>
<path d="M182.419 0L184.648 4.47926L189.631 5.19755L186.025 8.68416L186.877 13.6073L182.419 11.2829L177.962 13.6073L178.813 8.68416L175.207 5.19755L180.191 4.47926L182.419 0Z" fill="#FFB800"/>
<path d="M36.8024 35.6966C36.8024 39.7366 33.6162 42.7136 29.7059 42.7136C25.7956 42.7136 22.6094 39.7366 22.6094 35.6966C22.6094 31.6282 25.7956 28.6797 29.7059 28.6797C33.6162 28.6797 36.8024 31.6282 36.8024 35.6966ZM33.6959 35.6966C33.6959 33.172 31.8492 31.4447 29.7059 31.4447C27.5626 31.4447 25.7159 33.172 25.7159 35.6966C25.7159 38.1959 27.5626 39.9485 29.7059 39.9485C31.8492 39.9485 33.6959 38.1927 33.6959 35.6966Z" fill="white"/>
<path d="M52.1149 35.6966C52.1149 39.7366 48.9287 42.7136 45.0184 42.7136C41.1081 42.7136 37.9219 39.7366 37.9219 35.6966C37.9219 31.6314 41.1081 28.6797 45.0184 28.6797C48.9287 28.6797 52.1149 31.6282 52.1149 35.6966ZM49.0084 35.6966C49.0084 33.172 47.1617 31.4447 45.0184 31.4447C42.8751 31.4447 41.0284 33.172 41.0284 35.6966C41.0284 38.1959 42.8751 39.9485 45.0184 39.9485C47.1617 39.9485 49.0084 38.1927 49.0084 35.6966Z" fill="white"/>
<path d="M66.7803 29.1036V41.7012C66.7803 46.8832 63.6993 48.9997 60.0569 48.9997C56.6283 48.9997 54.5647 46.7251 53.7865 44.8648L56.4911 43.7481C56.9727 44.8901 58.1528 46.2379 60.0537 46.2379C62.3852 46.2379 63.83 44.8111 63.83 42.1251V41.1159H63.7216C63.0263 41.9669 61.6867 42.7104 59.9963 42.7104C56.4592 42.7104 53.2188 39.6543 53.2188 35.7219C53.2188 31.7611 56.4592 28.6797 59.9963 28.6797C61.6835 28.6797 63.0231 29.4231 63.7216 30.2488H63.83V29.1068H66.7803V29.1036ZM64.0501 35.7219C64.0501 33.2511 62.3884 31.4447 60.2738 31.4447C58.1305 31.4447 56.3348 33.2511 56.3348 35.7219C56.3348 38.1674 58.1305 39.9485 60.2738 39.9485C62.3884 39.9485 64.0501 38.1674 64.0501 35.7219Z" fill="white"/>
<path d="M71.6472 21.7188V42.2824H68.6172V21.7188H71.6472Z" fill="white"/>
<path d="M83.456 38.0092L85.8672 39.6037C85.089 40.7458 83.2136 42.7136 79.9731 42.7136C75.9544 42.7136 72.9531 39.6322 72.9531 35.6966C72.9531 31.5238 75.9799 28.6797 79.6254 28.6797C83.2965 28.6797 85.0922 31.5776 85.679 33.1436L86.0012 33.9408L76.5444 37.8258C77.2684 39.2336 78.3943 39.9517 79.9731 39.9517C81.5551 39.9517 82.6522 39.1798 83.456 38.0092ZM76.0341 35.4847L82.3556 32.881C82.008 32.0047 80.9618 31.3941 79.7307 31.3941C78.1519 31.3941 75.9544 32.7766 76.0341 35.4847Z" fill="white"/>
<path d="M11.1407 33.8738V30.8968H21.2545C21.3533 31.4156 21.4044 32.0294 21.4044 32.6938C21.4044 34.9273 20.7888 37.6891 18.805 39.6569C16.8754 41.65 14.4099 42.713 11.1439 42.713C5.09036 42.713 0 37.822 0 31.8174C0 25.8129 5.09036 20.9219 11.1439 20.9219C14.4928 20.9219 16.8785 22.2253 18.671 23.9242L16.5532 26.0248C15.2679 24.829 13.5264 23.8989 11.1407 23.8989C6.72016 23.8989 3.2628 27.4326 3.2628 31.8174C3.2628 36.2022 6.72016 39.736 11.1407 39.736C14.008 39.736 15.641 38.5939 16.6872 37.5563C17.5356 36.7147 18.0937 35.5125 18.3138 33.8706L11.1407 33.8738Z" fill="white"/>
</svg>
