<svg width="137" height="41" viewBox="0 0 137 41" fill="none" xmlns="http://www.w3.org/2000/svg">
<path d="M19.1275 13.1742C18.8041 13.1472 18.3969 13.1172 17.8849 13.1172C13.9115 13.1172 11.2975 14.8347 10.0458 18.2938L10.477 13.7898H6.82698C5.72325 13.7985 4.66136 14.2144 3.84397 14.9582C3.02657 15.702 2.51093 16.7216 2.39543 17.8224L0 40.3245H3.677C4.78124 40.3166 5.84386 39.901 6.66188 39.1571C7.4799 38.4132 7.99599 37.3932 8.11154 36.2919L9.03077 27.4099C9.13298 26.3833 9.34069 25.3701 9.65059 24.3863C9.94835 23.6999 10.38 23.0802 10.9202 22.5636C11.5094 21.9118 12.2328 21.3961 13.0404 21.0524C13.848 20.7087 14.7204 20.545 15.5973 20.5728C16.5013 20.5949 17.3997 20.7228 18.2742 20.9542L20.4091 13.4474C19.9888 13.3263 19.5606 13.2351 19.1275 13.1742Z" fill="black"/>
<path d="M35.4244 12.2188C31.1245 12.2188 27.4775 13.7981 24.4503 16.9059C22.9826 18.376 21.8242 20.1268 21.0439 22.0543C20.2636 23.9818 19.8773 26.0469 19.9079 28.127C19.9079 31.9134 21.0428 34.883 23.3124 37.063C25.5821 39.2429 28.6662 40.3329 32.6127 40.3329C35.0249 40.3809 37.42 39.9163 39.6403 38.9697C41.6405 38.0688 43.6137 36.5465 45.587 34.4206L45.6948 34.3125L42.5328 31.9404C42.0574 31.567 41.4696 31.3666 40.8657 31.3721C40.2619 31.3776 39.6778 31.5886 39.2091 31.9704C38.6397 32.4451 38.0395 32.8814 37.4126 33.2766C35.8975 34.1774 34.4931 34.6398 33.1697 34.6398C32.3885 34.6682 31.6096 34.5379 30.88 34.2566C30.1503 33.9754 29.4849 33.5491 28.9238 33.0034C27.7889 31.9134 27.2469 30.472 27.2469 28.6734H47.0632C47.1073 28.0411 47.1974 27.413 47.3326 26.7938C47.4103 26.2425 47.4553 25.687 47.4674 25.1303C47.4674 21.1818 46.3865 18.0229 44.2246 15.7048C42.0627 13.3868 39.1522 12.2188 35.4244 12.2188ZM27.747 23.662C28.3458 21.7823 29.2381 20.338 30.4239 19.3291C31.6045 18.3173 33.114 17.7746 34.6668 17.8037C36.3167 17.8037 37.6132 18.3202 38.5324 19.3561C39.4517 20.3921 39.9667 21.8363 39.9667 23.662H27.747Z" fill="black"/>
<path d="M73.0141 4.5404L71.7864 16.389C70.4629 13.6115 68.0286 12.2483 64.4624 12.2483C60.5967 12.2483 57.297 13.8007 54.5812 16.9085C51.8654 20.0162 50.5 23.7726 50.5 28.1565C50.5 31.9459 51.4732 34.9126 53.3925 37.0656C55.3118 39.2185 57.9348 40.3085 61.2315 40.3085C65.2858 40.3085 68.1184 38.8071 69.7473 35.8675L69.37 40.3085H73.071C75.3436 40.3085 77.263 37.7471 77.5055 35.4591L81.1555 0.507812H77.4486C76.3444 0.51576 75.2818 0.931362 74.4637 1.67524C73.6457 2.41912 73.1296 3.43911 73.0141 4.5404ZM69.2562 31.3454C68.6288 32.1148 67.8363 32.7322 66.9379 33.1517C66.0394 33.5713 65.0581 33.7822 64.0671 33.7686C62.2706 33.7686 60.8513 33.198 59.8242 32.054C58.7972 30.91 58.2552 29.3306 58.2552 27.3398V26.415C58.5247 24.154 59.3092 22.3283 60.6507 20.9111C61.2722 20.2345 62.0295 19.6974 62.8727 19.3352C63.716 18.9729 64.6261 18.7937 65.5433 18.8092C67.298 18.8092 68.7053 19.3797 69.7593 20.5508C70.8133 21.7218 71.3552 23.3042 71.3552 25.2379C71.3403 27.6941 70.6636 29.712 69.2562 31.3454Z" fill="black"/>
<path d="M85.9027 4.54043L82.1719 40.3355H85.8758C86.9847 40.3342 88.0539 39.9216 88.8776 39.1771C89.7013 38.4326 90.2212 37.4088 90.3373 36.3029L90.9841 30.0663L91.2026 27.9404L91.4452 25.4872L91.7686 22.4635L94.0412 0.507836H90.3433C89.2351 0.504241 88.1656 0.915681 87.3442 1.66163C86.5228 2.40757 86.0087 3.43424 85.9027 4.54043Z" fill="black"/>
<path d="M97.6459 16.1932L96.9692 22.4989L96.6428 25.5076L96.3733 27.9337L96.1548 30.0596L95.0469 40.3558H98.7388C99.8459 40.3426 100.91 39.9216 101.727 39.173C102.545 38.4245 103.06 37.4006 103.173 36.2962L105.659 12.1876H102.092C100.987 12.1798 99.9183 12.5862 99.0958 13.3271C98.2733 14.068 97.7563 15.0901 97.6459 16.1932Z" fill="black"/>
<path d="M105.995 1.70163C105.153 0.912843 104.039 0.482285 102.887 0.500559C101.637 0.482417 100.424 0.928358 99.482 1.75266C99.0409 2.10032 98.6831 2.54272 98.4349 3.04727C98.1867 3.55183 98.0544 4.10569 98.0478 4.66826C98.0358 5.21384 98.1436 5.7554 98.3635 6.25456C98.5834 6.75373 98.9101 7.19834 99.3203 7.55688C100.152 8.34088 101.26 8.76199 102.401 8.7279C103.671 8.76981 104.911 8.34234 105.887 7.52682C106.329 7.18186 106.686 6.73945 106.93 6.23382C107.174 5.72819 107.299 5.17295 107.294 4.61122C107.3 4.06084 107.187 3.51567 106.963 3.01333C106.739 2.511 106.408 2.06348 105.995 1.70163Z" fill="black"/>
<path fill-rule="evenodd" clip-rule="evenodd" d="M127.966 13.0092C126.577 12.6278 125.142 12.4409 123.702 12.4537C119.594 12.4537 116.052 13.7899 113.105 16.4053C111.183 18.0874 109.722 20.2342 108.86 22.6418C108.254 24.3466 107.95 26.1441 107.961 27.9536V28.0347C107.961 31.74 109.159 34.7637 111.5 37.0427C113.842 39.3218 116.962 40.5048 120.783 40.5048C125.214 40.5048 128.953 39.0035 131.999 36.0008C135.057 32.9981 136.569 29.2718 136.569 24.8578C136.583 23.4667 136.39 22.0813 135.997 20.7471C135.231 21.0891 134.401 21.2651 133.562 21.2636C132.581 21.2582 131.616 21.0133 130.75 20.5501C129.884 20.0868 129.144 19.4191 128.593 18.6047C128.042 17.7903 127.697 16.8536 127.588 15.8756C127.478 14.8976 127.608 13.9076 127.966 12.9912V13.0092ZM121.403 33.962C122.442 33.9792 123.472 33.7717 124.424 33.3535C125.376 32.9354 126.226 32.3164 126.918 31.5388C128.433 29.9293 129.161 27.9145 129.161 25.5184C129.161 23.6117 128.562 22.0593 127.406 20.8583C126.295 19.6332 124.783 19.0356 122.945 19.0356C121.989 19.0284 121.041 19.2103 120.155 19.571C119.269 19.9317 118.463 20.464 117.782 21.1375C116.3 22.5693 115.379 24.4872 115.186 26.5423V27.4701C115.186 29.3768 115.755 30.9293 116.89 32.1543C118.025 33.3794 119.537 33.962 121.403 33.962Z" fill="black"/>
<path d="M137.002 15.2229C136.998 15.9032 136.793 16.5669 136.413 17.1305C136.033 17.6941 135.495 18.1324 134.867 18.3898C134.239 18.6473 133.549 18.7125 132.884 18.5772C132.22 18.4419 131.61 18.1123 131.131 17.6298C130.653 17.1473 130.328 16.5336 130.197 15.8661C130.066 15.1986 130.136 14.5071 130.396 13.879C130.657 13.2509 131.097 12.7143 131.661 12.3368C132.226 11.9593 132.889 11.7578 133.567 11.7578C134.02 11.759 134.467 11.8495 134.885 12.0244C135.302 12.1992 135.682 12.4548 136.001 12.7766C136.319 13.0984 136.572 13.4801 136.744 13.8999C136.916 14.3196 137.003 14.7692 137.002 15.2229Z" fill="#FFB211"/>
</svg>
