<svg width="53" height="45" viewBox="0 0 53 45" fill="none" xmlns="http://www.w3.org/2000/svg">
<path opacity="0.2" d="M53 34.0809C53 37.0588 51.9024 39.6507 49.7071 41.8566C47.6164 43.9522 44.8984 45 41.5532 45C37.8945 45 34.8629 43.6765 32.4586 41.0294C30.1588 38.2721 29.0089 34.5772 29.0089 29.9449C29.0089 24.761 29.7406 20.3493 31.2041 16.7096C32.6676 13.0699 34.497 10.0368 36.6923 7.61029C38.9921 5.18383 41.4487 3.36398 44.0621 2.15074C46.7801 0.937504 49.289 0.220592 51.5888 0V9.09926C50.0207 9.43015 48.5049 10.0368 47.0414 10.9191C45.5779 11.8015 44.2712 12.9044 43.1213 14.2279C42.0759 15.5515 41.1874 17.0404 40.4556 18.6949C39.8284 20.3493 39.4625 22.0588 39.358 23.8235C39.5671 23.7132 39.9329 23.5478 40.4556 23.3272C40.9783 23.1066 41.6578 22.9963 42.4941 22.9963C45.6302 22.9963 48.1391 24.0441 50.0207 26.1397C52.0069 28.125 53 30.7721 53 34.0809ZM23.9911 34.0809C23.9911 37.0588 22.8935 39.6507 20.6982 41.8566C18.6075 43.9522 15.8895 45 12.5444 45C8.8856 45 5.85404 43.6765 3.4497 41.0294C1.1499 38.2721 0 34.5772 0 29.9449C0 24.761 0.731755 20.3493 2.19527 16.7096C3.65878 13.0699 5.48816 10.0368 7.68343 7.61029C9.98323 5.18383 12.4398 3.36398 15.0533 2.15074C17.6667 0.937504 20.1755 0.220592 22.5799 0V9.09926C19.3392 9.65073 16.5168 11.3603 14.1124 14.2279C11.7081 17.0956 10.4014 20.2941 10.1923 23.8235C10.4014 23.7132 10.7673 23.5478 11.2899 23.3272C11.9172 23.1066 12.6489 22.9963 13.4852 22.9963C16.5168 22.9963 19.0256 24.0441 21.0118 26.1397C22.998 28.125 23.9911 30.7721 23.9911 34.0809Z" fill="white"/>
</svg>
